<svg width="15" height="16" viewBox="0 0 15 16" fill="none" xmlns="http://www.w3.org/2000/svg">
<g clip-path="url(#clip0_3654_9277)">
<path d="M3.125 9.37744C2.54257 9.37744 2.25136 9.37744 2.02165 9.28229C1.71536 9.15542 1.47202 8.91208 1.34515 8.6058C1.25 8.37608 1.25 8.08487 1.25 7.50244V3.25244C1.25 2.55238 1.25 2.20234 1.38624 1.93495C1.50608 1.69975 1.69731 1.50853 1.93251 1.38868C2.1999 1.25244 2.54993 1.25244 3.25 1.25244H7.5C8.08243 1.25244 8.37364 1.25244 8.60335 1.34759C8.90964 1.47446 9.15298 1.7178 9.27985 2.02409C9.375 2.2538 9.375 2.54501 9.375 3.12744M7.625 13.7524H11.75C12.4501 13.7524 12.8001 13.7524 13.0675 13.6162C13.3027 13.4964 13.4939 13.3051 13.6138 13.0699C13.75 12.8025 13.75 12.4525 13.75 11.7524V7.62744C13.75 6.92738 13.75 6.57734 13.6138 6.30995C13.4939 6.07475 13.3027 5.88353 13.0675 5.76368C12.8001 5.62744 12.4501 5.62744 11.75 5.62744H7.625C6.92493 5.62744 6.5749 5.62744 6.30751 5.76368C6.07231 5.88353 5.88108 6.07475 5.76124 6.30995C5.625 6.57734 5.625 6.92738 5.625 7.62744V11.7524C5.625 12.4525 5.625 12.8025 5.76124 13.0699C5.88108 13.3051 6.07231 13.4964 6.30751 13.6162C6.5749 13.7524 6.92493 13.7524 7.625 13.7524Z" stroke="white" stroke-opacity="0.95" stroke-width="1.3" stroke-linecap="round" stroke-linejoin="round"/>
</g>
<defs>
<clipPath id="clip0_3654_9277">
<rect width="15" height="15" fill="white" transform="translate(0 0.00244141)"/>
</clipPath>
</defs>
</svg>
