<svg width="128" height="128" viewBox="0 0 128 128" fill="none" xmlns="http://www.w3.org/2000/svg">
<path d="M93.0943 110.368H78.608C77.3264 110.368 76.0972 109.858 75.191 108.952C74.2847 108.046 73.7756 106.817 73.7756 105.535C73.7756 104.254 74.2847 103.024 75.191 102.118C76.0972 101.212 77.3264 100.703 78.608 100.703H93.0954L64.1417 52.3563L35.0988 100.752L49.6144 100.706C50.8961 100.706 52.1252 101.215 53.0315 102.121C53.9378 103.028 54.4469 104.257 54.4469 105.538C54.4469 106.82 53.9378 108.049 53.0315 108.955C52.1252 109.862 50.8961 110.371 49.6144 110.371H35.1187C33.4186 110.37 31.7486 109.921 30.2773 109.07C28.806 108.218 27.5853 106.993 26.7384 105.519C25.8915 104.044 25.4484 102.373 25.4536 100.673C25.4588 98.9728 25.9123 97.3041 26.7683 95.8351L55.7849 47.3891C56.643 45.9384 57.8653 44.7371 59.3305 43.9043C60.7958 43.0714 62.4533 42.6358 64.1387 42.6407C65.8241 42.6456 67.479 43.0907 68.9394 43.9321C70.3999 44.7734 71.6151 45.9817 72.4648 47.4373L101.419 95.789C102.286 97.2563 102.75 98.9269 102.763 100.631C102.776 102.336 102.339 104.014 101.494 105.494C100.65 106.975 99.4289 108.206 97.9551 109.062C96.4813 109.919 94.8073 110.37 93.1027 110.371L93.0943 110.368Z" fill="#DFE3EC"/>
<path d="M24.9387 89.0467C18.8578 88.1908 13.2903 85.1686 9.25966 80.5357C5.22904 75.9028 3.00627 69.9706 3 63.8297L3 43.4604C3.00833 36.7104 5.69343 30.2393 10.4664 25.4664C15.2393 20.6934 21.7104 18.0083 28.4604 18L99.7515 18C106.502 18.0078 112.974 20.6926 117.747 25.4656C122.52 30.2386 125.206 36.7101 125.214 43.4604V63.8297C125.207 69.9705 122.984 75.9026 118.954 80.5353C114.923 85.168 109.355 88.19 103.274 89.0457L89.5674 66.0285V28.1842H38.6456V66.0296L24.9387 89.0467ZM99.7515 28.1842V79.107C103.802 79.1026 107.685 77.4916 110.549 74.6275C113.413 71.7634 115.024 67.8802 115.029 63.8297V43.4604C115.024 39.4101 113.413 35.5272 110.549 32.6633C107.685 29.7994 103.802 28.1886 99.7515 28.1842ZM28.4604 28.1842C24.4102 28.1886 20.5273 29.7995 17.6634 32.6634C14.7995 35.5273 13.1886 39.4102 13.1842 43.4604V63.8297C13.1886 67.88 14.7994 71.7631 17.6633 74.6271C20.5272 77.4912 24.4101 79.1023 28.4604 79.107V28.1842Z" fill="#DFE3EC"/>
<path opacity="0.7" d="M68.9389 91.0441V76.5473C68.9389 75.2657 68.4297 74.0366 67.5235 73.1303C66.6172 72.224 65.3881 71.7149 64.1064 71.7149C62.8248 71.7149 61.5956 72.224 60.6894 73.1303C59.7831 74.0366 59.274 75.2657 59.274 76.5473V91.0441C59.274 92.3258 59.7831 93.5549 60.6894 94.4612C61.5956 95.3674 62.8248 95.8766 64.1064 95.8766C65.3881 95.8766 66.6172 95.3674 67.5235 94.4612C68.4297 93.5549 68.9389 92.3258 68.9389 91.0441ZM64.107 100.711C63.151 100.711 62.2166 100.995 61.4218 101.526C60.6271 102.057 60.0078 102.812 59.6422 103.695C59.2767 104.579 59.1814 105.551 59.3683 106.488C59.5553 107.425 60.0161 108.286 60.6925 108.962C61.3689 109.637 62.2304 110.097 63.1682 110.283C64.1059 110.469 65.0776 110.372 65.9604 110.005C66.8432 109.639 67.5974 109.018 68.1276 108.223C68.6578 107.427 68.9401 106.493 68.9389 105.537C68.9366 104.256 68.4266 103.029 67.5208 102.125C66.6149 101.22 65.3872 100.712 64.107 100.711Z" fill="#DFE3EC"/>
</svg>
