<svg width="20" height="21" viewBox="0 0 20 21" fill="none" xmlns="http://www.w3.org/2000/svg">
<g clip-path="url(#clip0_4059_5003)">
<path d="M16.9421 3.77191C15.628 3.17032 14.2408 2.74353 12.8159 2.50244C12.6209 2.85102 12.4445 3.20965 12.2873 3.57685C10.7695 3.34813 9.22598 3.34813 7.70815 3.57685C7.55093 3.20969 7.3745 2.85106 7.17959 2.50244C5.75374 2.74556 4.36563 3.17337 3.05029 3.77505C0.438993 7.63851 -0.268888 11.406 0.0850527 15.12C1.61429 16.2499 3.32595 17.1092 5.14562 17.6605C5.55535 17.1095 5.91792 16.5248 6.22946 15.9129C5.63772 15.6918 5.06659 15.4192 4.52268 15.098C4.66583 14.9942 4.80583 14.8872 4.94112 14.7834C6.52378 15.5277 8.25117 15.9136 10.0001 15.9136C11.749 15.9136 13.4764 15.5277 15.0591 14.7834C15.196 14.8951 15.336 15.002 15.4775 15.098C14.9326 15.4197 14.3604 15.6929 13.7676 15.9144C14.0788 16.5261 14.4414 17.1103 14.8515 17.6605C16.6727 17.1114 18.3856 16.2525 19.9152 15.1216V15.1216C20.3305 10.8145 19.2057 7.08165 16.9421 3.77191ZM6.67779 12.8359C5.69147 12.8359 4.87662 11.9409 4.87662 10.8397C4.87662 9.73856 5.66316 8.83562 6.67464 8.83562C7.68612 8.83562 8.49468 9.73856 8.47738 10.8397C8.46007 11.9409 7.68298 12.8359 6.67779 12.8359ZM13.3224 12.8359C12.3345 12.8359 11.5228 11.9409 11.5228 10.8397C11.5228 9.73856 12.3094 8.83562 13.3224 8.83562C14.3355 8.83562 15.1378 9.73856 15.1204 10.8397C15.1031 11.9409 14.3276 12.8359 13.3224 12.8359Z" fill="white" fill-opacity="0.8"/>
</g>
<defs>
<clipPath id="clip0_4059_5003">
<rect width="20" height="15.1581" fill="white" transform="translate(0 2.50244)"/>
</clipPath>
</defs>
</svg>
