<svg width="20" height="21" viewBox="0 0 20 21" fill="none" xmlns="http://www.w3.org/2000/svg">
<path d="M17.5 7.50244L17.5 2.50244M17.5 2.50244H12.5M17.5 2.50244L10.8333 9.16911M8.33333 4.16911H6.5C5.09987 4.16911 4.3998 4.16911 3.86502 4.44159C3.39462 4.68128 3.01217 5.06373 2.77248 5.53413C2.5 6.06891 2.5 6.76898 2.5 8.16911V13.5024C2.5 14.9026 2.5 15.6026 2.77248 16.1374C3.01217 16.6078 3.39462 16.9903 3.86502 17.23C4.3998 17.5024 5.09987 17.5024 6.5 17.5024H11.8333C13.2335 17.5024 13.9335 17.5024 14.4683 17.23C14.9387 16.9903 15.3212 16.6078 15.5608 16.1374C15.8333 15.6026 15.8333 14.9026 15.8333 13.5024V11.6691" stroke="white" stroke-opacity="0.55" stroke-width="1.33333" stroke-linecap="round" stroke-linejoin="round"/>
</svg>
